<?xml version="1.0" encoding="UTF-8"?>
<svg width="525px" height="227px" viewBox="0 0 525 227" version="1.1" xmlns="http://www.w3.org/2000/svg" xmlns:xlink="http://www.w3.org/1999/xlink">
    <!-- Generator: Sketch 47.1 (45422) - http://www.bohemiancoding.com/sketch -->
    <title>Montain</title>
    <desc>Created with Sketch.</desc>
    <defs></defs>
    <g id="Page-1" stroke="none" stroke-width="1" fill="none" fill-rule="evenodd">
        <g id="V4" transform="translate(-261.000000, -273.000000)">
            <g id="Montain" transform="translate(261.000000, 273.000000)">
                <polygon id="Triangle-2" fill="#3C83BC" points="87 182 174 227 0 227"></polygon>
                <polygon id="Triangle-2" fill="#3C83BC" points="451.5 199 525 227 378 227"></polygon>
                <polygon id="Triangle" fill="#0B4370" points="251 151.395803 276.34486 151.395803 449 227 53 227 226.559025 151"></polygon>
                <path d="M387.572976,8.2507443 C389.730716,10.2953103 391,12.7975007 391,15.5 C391,22.4035594 382.717268,28 372.5,28 C367.438032,28 362.850903,26.6263341 359.510589,24.4006083 C353.602233,31.5926124 346.542345,37.0907592 338.214136,40.500962 C340.448677,41.3710198 342,43.2822161 342,45.5 C342,48.5375661 339.089851,51 335.5,51 C331.910149,51 329,48.5375661 329,45.5 C329,44.691882 329.205974,43.9244706 329.575924,43.2333036 C316.861345,46.6250493 309.017391,48.8222084 293.131645,46.5767338 C290.125891,51.5644784 283.807765,55 276.5,55 C270.257243,55 264.736691,52.4928727 261.386365,48.6526901 C261.128788,49.1714066 261,49.7098366 261,50.26798 C261,69.5858867 261,98.5627468 261,137.19856 C261.880717,142.118087 263.045116,145.262692 264.493197,146.632374 C265.941277,148.002056 269.640682,149.457931 275.591411,151 L227.587781,151 C233.373925,149.683306 237.033856,148.227431 238.567574,146.632374 C240.101293,145.037317 240.912101,141.843653 241,137.051382 C241,97.2717757 241,67.4370709 241,47.5472677 C241,45.0985623 238.566113,42.7368778 233.69834,40.4622141 C231.936456,47.5750796 222.668521,53 211.5,53 C199.073593,53 189,46.2842712 189,38 C189,37.246915 189.083246,36.5067921 189.243938,35.783498 C186.264135,35.4191523 182.775238,34.8566732 178.533132,34 C157.339021,29.7199504 151.040579,23.6917509 140.418329,13.0925668 C138.716603,14.8449463 135.805446,16 132.5,16 C128.119139,16 124.430866,13.9710993 123.332848,11.2117033 C112.572154,12.3199066 98.0192048,13 82,13 C48.862915,13 22,10.0898509 22,6.5 C22,2.91014913 48.862915,0 82,0 C103.241916,0 121.905641,1.1958426 132.567821,2.99999766 L372,3 C372.164874,3.00150991 372.332176,3 372.5,3 C374.975632,3 377.337691,3.32855997 379.495871,3.92466404 C387.370971,2.21633999 407.683588,1 431.5,1 C462.151804,1 487,3.01471863 487,5.5 C487,7.98528137 462.151804,10 431.5,10 C413.624979,10 397.723649,9.31483459 387.572976,8.2507443 Z M158.5,52 C151.044156,52 145,49.7614237 145,47 C145,44.2385763 151.044156,42 158.5,42 C165.955844,42 172,44.2385763 172,47 C172,49.7614237 165.955844,52 158.5,52 Z" id="Combined-Shape" fill-opacity="0.2" fill="#FFFFFF"></path>
            </g>
        </g>
    </g>
</svg>