<?xml version="1.0" encoding="UTF-8"?>
<svg width="525px" height="227px" preserveAspectRatio="none" viewBox="0 0 525 227" version="1.1" xmlns="http://www.w3.org/2000/svg" xmlns:xlink="http://www.w3.org/1999/xlink">
    <!-- Generator: Sketch 47.1 (45422) - http://www.bohemiancoding.com/sketch -->
    <title>Montain</title>
    <desc>Created with Sketch.</desc>
    <defs></defs>
    <g id="Page-1" stroke="none" stroke-width="1" fill="none" fill-rule="evenodd">
        <g id="V4" transform="translate(-261.000000, -273.000000)">
            <g id="Montain" transform="translate(261.000000, 273.000000)">
                <polygon id="Triangle-2" fill="#3C83BC" points="87 182 174 227 0 227"></polygon>
                <polygon id="Triangle-2" fill="#3C83BC" points="451.5 199 525 227 378 227"></polygon>
                <polygon id="Triangle" fill="#0B4370" points="261 151.395803 286.34486 151.395803 459 227 63 227 236.559025 151"></polygon>
                <path d="M398.572976,8.2507443 C400.730716,10.2953103 402,12.7975007 402,15.5 C402,22.4035594 393.717268,28 383.5,28 C378.438032,28 373.850903,26.6263341 370.510589,24.4006083 C364.602233,31.5926124 357.542345,37.0907592 349.214136,40.500962 C351.448677,41.3710198 353,43.2822161 353,45.5 C353,48.5375661 350.089851,51 346.5,51 C342.910149,51 340,48.5375661 340,45.5 C340,44.691882 340.205974,43.9244706 340.575924,43.2333036 C327.861345,46.6250493 320.017391,48.8222084 304.131645,46.5767338 C301.125891,51.5644784 294.807765,55 287.5,55 C281.257243,55 275.736691,52.4928727 272.386365,48.6526901 C272.128788,49.1714066 272,49.7098366 272,50.26798 C272,69.5858867 272,98.5627468 272,137.19856 C272.880717,142.118087 274.045116,145.262692 275.493197,146.632374 C276.941277,148.002056 280.640682,149.457931 286.591411,151 L238.587781,151 C244.373925,149.683306 248.033856,148.227431 249.567574,146.632374 C251.101293,145.037317 251.912101,141.843653 252,137.051382 C252,97.2717757 252,67.4370709 252,47.5472677 C252,45.0985623 249.566113,42.7368778 244.69834,40.4622141 C242.936456,47.5750796 233.668521,53 222.5,53 C210.073593,53 200,46.2842712 200,38 C200,37.246915 200.083246,36.5067921 200.243938,35.783498 C197.264135,35.4191523 193.775238,34.8566732 189.533132,34 C168.339021,29.7199504 162.040579,23.6917509 151.418329,13.0925668 C149.716603,14.8449463 146.805446,16 143.5,16 C139.119139,16 135.430866,13.9710993 134.332848,11.2117033 C123.572154,12.3199066 109.019205,13 93,13 C59.862915,13 33,10.0898509 33,6.5 C33,2.91014913 59.862915,0 93,0 C114.241916,0 132.905641,1.1958426 143.567821,2.99999766 L383,3 C383.164874,3.00150991 383.332176,3 383.5,3 C385.975632,3 388.337691,3.32855997 390.495871,3.92466404 C398.370971,2.21633999 418.683588,1 442.5,1 C473.151804,1 498,3.01471863 498,5.5 C498,7.98528137 473.151804,10 442.5,10 C424.624979,10 408.723649,9.31483459 398.572976,8.2507443 Z M169.5,52 C162.044156,52 156,49.7614237 156,47 C156,44.2385763 162.044156,42 169.5,42 C176.955844,42 183,44.2385763 183,47 C183,49.7614237 176.955844,52 169.5,52 Z" id="Combined-Shape" fill-opacity="0.2" fill="#FFFFFF"></path>
            </g>
        </g>
    </g>
</svg>