<?xml version="1.0" encoding="UTF-8"?>
<svg width="136px" height="164px" viewBox="0 0 136 164" version="1.1" xmlns="http://www.w3.org/2000/svg" xmlns:xlink="http://www.w3.org/1999/xlink">
    <!-- Generator: Sketch 47.1 (45422) - http://www.bohemiancoding.com/sketch -->
    <title>Path</title>
    <desc>Created with Sketch.</desc>
    <defs></defs>
    <g id="Page-1" stroke="none" stroke-width="1" fill="none" fill-rule="evenodd">
        <g id="V4" transform="translate(-418.000000, -1172.000000)" fill="#C9FFC6">
            <g id="Cat" transform="translate(399.000000, 1160.000000)">
                <path d="M149.648333,32.6635919 C149.648333,30.6317486 149.288581,28.6705927 148.619739,26.8227454 L154.385219,12.1373487 C151.390212,11.8383172 148.510019,12.0275676 145.74464,12.7051 C143.274077,13.3104008 141.034009,14.4043567 139.024437,15.9869675 C135.251723,13.8730904 130.720903,12.6411352 125.848054,12.6411352 C120.950894,12.6411352 116.399184,13.8854139 112.615261,16.0186727 C110.595388,14.4189589 108.341939,13.3144346 105.854912,12.7051 C103.089533,12.0275676 100.20934,11.8383172 97.2143328,12.1373487 L103.030346,26.951459 C102.391039,28.7615726 102.047775,30.6788585 102.047775,32.6635919 C102.047775,42.9799203 111.32191,51.4739822 123.238938,52.5671136 C121.281983,63.8208393 119.226904,71.7463033 117.073701,76.3435054 C103.484757,105.356617 93.3272024,124.068384 91.7545294,135.28697 C89.6948005,149.979943 97.4815958,159.662937 107.292249,165.10255 C106.867151,165.162717 106.456656,165.205651 106.060763,165.231352 C100.440849,165.596195 95.0925313,165.231352 88.5436571,162.766542 C76.4320355,158.208072 73.4718299,118.734529 54.9784679,118.111125 C42.6495599,117.695522 30.6914465,133.402265 19.1041277,165.231352 C18.6671269,167.95394 19.6056227,169.728188 21.9196152,170.554096 C24.2336076,171.380004 26.2770558,170.435601 28.0499598,167.720886 C36.4585686,142.162893 44.8315731,129.383896 53.1689734,129.383896 C65.6750739,129.383896 65.8456945,166.495988 87.3801857,173.823935 C93.0962702,175.769055 101.098413,176.308042 106.060763,175.391875 C111.077461,174.465675 116.611558,172.732124 122.663052,170.191222 C124.430973,170.434609 126.13729,170.554096 127.736965,170.554096 C142.759286,170.554096 150.969441,164.431768 150.969441,129.588328 C150.969441,106.671585 144.153861,80.9088003 130.522702,52.2999744 C141.428817,50.4726761 149.648333,42.3756566 149.648333,32.6635919 Z" id="Path"></path>
            </g>
        </g>
    </g>
</svg>