<?xml version="1.0" encoding="UTF-8"?>
<svg width="1024px" height="83px" preserveAspectRatio="none" viewBox="0 0 1024 83" version="1.1" xmlns="http://www.w3.org/2000/svg" xmlns:xlink="http://www.w3.org/1999/xlink">
    <!-- Generator: Sketch 47.1 (45422) - http://www.bohemiancoding.com/sketch -->
    <title>Seedling</title>
    <desc>Created with Sketch.</desc>
    <defs></defs>
    <g id="Page-1" stroke="none" stroke-width="1" fill="none" fill-rule="evenodd">
        <g id="V4" transform="translate(0.000000, -921.000000)" fill="#1FBD6B">
            <g id="Seedling" transform="translate(0.000000, 921.000000)">
                <path d="M521.453757,28.3104816 C524.640353,25.7999954 529.088932,22.5431681 534.799496,18.5399998 C541.632188,13.7502064 546.032356,7.59402515 548,0.0714561068 C540.419873,-0.43063099 533.213463,1.71322217 526.38077,6.50301557 C519.848421,11.0822652 517.532362,18.3522541 519.432594,28.3129823 C516.554381,19.520392 511.857465,12.8403356 505.341844,8.272813 C498.509152,3.48301959 488.728537,2.0267983 476,3.90414913 C483.116053,10.0514544 490.090426,15.5200038 496.923119,20.3097972 C503.400202,24.8503049 510.601772,27.8728794 518.527828,29.3775208 C520.068584,31.8441329 520.838962,34.372081 520.838962,36.9613651 C520.838962,39.7706907 519.932085,42.7835689 518.11833,46 L521.309113,46 C522.809433,42.0119097 523.559594,38.9990314 523.559594,36.9613651 C523.559594,34.9902696 522.857648,32.1066418 521.453757,28.3104816 L521.453757,28.3104816 Z" id="Combined-Shape"></path>
                <path d="M0,74.6683464 C151.278413,55.3365851 321.945079,45.7817305 512,46.0037824 C702.054921,46.2258343 872.721587,53.8688812 1024,68.9329231 L1024,83 L0,83 L0,74.6683464 Z" id="Rectangle-3"></path>
            </g>
        </g>
    </g>
</svg>